<svg id="fi_2542871" enable-background="new 0 0 512 512" height="512" viewBox="0 0 512 512" width="512" xmlns="http://www.w3.org/2000/svg"><g><path d="m256 68.515c-60.396 0-118.857 12.393-164.604 34.907l90.366 329.063c5.42-12.729 35.347-26.47 74.238-26.47 38.687 0 66.797 12.979 73.608 25.195l106.674-319.966c-47.812-27.553-112.474-42.729-180.282-42.729z" fill="#704c55"></path><path d="m329.608 431.211 106.674-319.966c-47.812-27.554-112.474-42.73-180.282-42.73v337.5c38.687 0 66.797 12.979 73.608 25.196z" fill="#5a344b"></path><g><path d="m511.791 98.603c1.375-8.19-4.167-15.919-12.305-17.285l-104.795-17.402c-8.291-1.333-15.923 4.146-17.285 12.305l-59.707 354.902c-1.375 8.188 4.167 15.919 12.305 17.285l104.506 17.402c8.674 1.346 15.976-4.517 17.285-12.305z" fill="#e63950"></path><g id="Accordion"><g><g><circle cx="433.94" cy="146.556" fill="#efe2dd" r="15"></circle></g><g><circle cx="424.003" cy="205.727" fill="#efe2dd" r="15"></circle></g><g><circle cx="414.067" cy="264.899" fill="#efe2dd" r="15"></circle></g><g><circle cx="404.13" cy="324.07" fill="#efe2dd" r="15"></circle></g><g><circle cx="394.194" cy="383.242" fill="#efe2dd" r="15"></circle></g></g></g><path d="m194.301 431.123-59.707-354.903c-1.377-8.159-9.053-13.667-17.285-12.305l-104.795 17.403c-8.124 1.364-13.681 9.084-12.304 17.285l2.576 14.741 131.802 143.671-76.875 181.676 2.492 14.815c1.309 7.787 8.613 13.651 17.285 12.305l104.506-17.402c8.125-1.365 13.682-9.085 12.305-17.286z" fill="#ff435b"></path><path d="m107.493 95.957-104.707 17.387 5.159 29.52 16.547 17.351-11.57 12.238 4.975 29.572 16.542 17.355-11.564 12.235 4.977 29.584 16.518 17.36-11.539 12.23 4.975 29.577 16.496 17.358-11.517 12.234 4.976 29.58 16.487 17.366-11.508 12.224 4.973 29.563 104.512-17.404z" fill="#fff5f5"></path></g><path d="m203.588 422.568-37.5-360c-.864-8.232 5.112-15.615 13.359-16.465 8.408-.952 15.615 5.112 16.465 13.359l37.5 360c.864 8.232-5.112 15.615-13.359 16.465-8.118.903-15.614-5.049-16.465-13.359z" fill="#9b786f"></path><g fill="#704c55"><path d="m291.947 435.928c-8.247-.85-14.224-8.232-13.359-16.465l37.5-360c.85-8.247 8.042-14.355 16.465-13.359 8.247.85 14.224 8.232 13.359 16.465l-37.5 360c-.853 8.331-8.368 14.258-16.465 13.359z"></path><path d="m124.248 381.904c-1.377-8.159-9.009-13.623-17.285-12.305l-59.202 9.939 4.979 29.59 59.203-9.939c8.16-1.377 13.681-9.111 12.305-17.285z"></path><path d="m84.492 145.215c-1.377-8.159-9.023-13.594-17.285-12.305l-59.262 9.954 4.977 29.59 59.266-9.954c8.159-1.377 13.681-9.112 12.304-17.285z"></path><path d="m94.439 204.38c-1.377-8.159-9.097-13.813-17.285-12.305l-59.257 9.95 4.979 29.59 59.258-9.95c8.159-1.377 13.682-9.112 12.305-17.285z"></path><path d="m104.37 263.559c-1.377-8.159-9.023-13.608-17.285-12.305l-59.233 9.944 4.979 29.59 59.235-9.944c8.159-1.376 13.681-9.111 12.304-17.285z"></path><path d="m114.302 322.724c-1.362-8.174-9.082-13.682-17.285-12.305l-59.211 9.946 4.979 29.592 59.213-9.948c8.158-1.376 13.681-9.111 12.304-17.285z"></path></g><path d="m256 46.015c-8.291 0-15 6.709-15 15v360c0 8.291 6.709 15 15 15s15-6.709 15-15v-360c0-8.291-6.709-15-15-15z" fill="#9b786f"></path><path d="m271 421.015v-360c0-8.291-6.709-15-15-15v390c8.291 0 15-6.709 15-15z" fill="#704c55"></path></g></svg>